_________________________  Visit us at _________________________
  
http://p2pdl.com  ____________________________  http://p2pdl.com


The Last Ride 2012 BRRip 480p x264 AAC - VYTO


Genre: Biography | Drama | Music
Plot: At the end of 1952, with the best years of Hank Williams's career behind him, he hires a local
kid to drive him through the Appalachian countryside for a pair of New Years shows in West Virginia
and Ohio.  
Director: Harry Thomason
Stars: Henry Thomas, Jesse James, Fred Dalton Thompson.
Rated: PG-13 for thematic elements, some language, a fight and smoking.


Info: 
http://www.imdb.com/title/tt1605803/

Trailer:


Format                         : MPEG-4
File size                      : 331 MiB
Duration                       : 1h 44mn
Overall bit rate mode          : Variable
Overall bit rate               : 443 Kbps
Source                         : LIMITED.720p.BluRay.x264-GECKOS

Video
Format                         : AVC
Bit rate                       : 401 Kbps
Width                          : 720 pixels
Height                         : 400 pixels
Display aspect ratio           : 16:9
Frame rate mode                : Constant
Frame rate                     : 23.976 fps
Stream size                    : 299 MiB (90%)
Writing library                : x264 core 130 r2273

Audio
Format                         : AAC
Bit rate mode                  : Variable
Bit rate                       : 39.8 Kbps
Channel(s)                     : 2 channels
Channel positions              : Front: L R
Sampling rate                  : 48.0 KHz
Stream size                    : 29.7 MiB (9%)
Language                       : English

Subtitle                       : Yes(English)
 
http://ultraimg.com/images/dlOhG.png 
http://ultraimg.com/images/GTwX.png 
http://ultraimg.com/images/2X0a6.png 
http://ultraimg.com/images/j9sY.png 
http://ultraimg.com/images/IlLo2.png 
http://ultraimg.com/images/YPM9.png 
http://ultraimg.com/images/Wwxzc.png 
http://ultraimg.com/images/Jg8XK.png


----------------------------------------------------------------------------------------------------


Encoded using revolutionary 10bit encoding, which enables us to provide you more crispier 
and sharper images at small sizes, just make sure you follow our instructions without a fault.
Recommend to you to use latest version of VLC player. Install K-Lite Codec Pack or shark007 codecs
in case of any kind of problem in playback (For non-VLC Media Player users). Alternatively, install
Core AVC codecs, the fastest decoder that there is coupled with Community Center Codec Pack and play
on Windows Media Player Classic. Check sample to be sure.
Enjoy!

Encoder Notes:Looking For Early Access To Anything You Can Provide DVDScr, R5, DVDR, BluRay, Direct
Audio, Music Releases and Seedboxes. We require dedicated servers, so as to do more 
and fast releases of movies.
If You Got anything to offer please contact us at "contact@p2pdl.com".

Face book Fan Page:   
http://www.fb.me/p2pdl